<?xml version="1.0" standalone="no"?>
<!DOCTYPE svg PUBLIC "-//W3C//DTD SVG 20010904//EN"
 "http://www.w3.org/TR/2001/REC-SVG-20010904/DTD/svg10.dtd">
<svg version="1.0" xmlns="http://www.w3.org/2000/svg"
 width="700.000000pt" height="700.000000pt" viewBox="0 0 700.000000 700.000000"
 preserveAspectRatio="xMidYMid meet">
<metadata>
Created by potrace 1.14, written by Peter Selinger 2001-2017
</metadata>
<g transform="translate(0.000000,700.000000) scale(0.100000,-0.100000)"
fill="#000000" stroke="none">
<path d="M1924 6333 c-264 -40 -486 -203 -599 -438 -88 -181 -79 61 -82 -2355
-4 -2367 -7 -2229 59 -2387 93 -224 293 -403 518 -465 113 -31 215 -33 1710
-32 1558 0 1541 0 1675 40 281 85 503 347 545 645 10 67 16 4226 6 4274 -2 11
-7 41 -10 67 -42 314 -322 592 -653 649 -98 17 -3062 19 -3169 2z m3154 -446
c119 -45 216 -156 238 -273 9 -48 9 -4163 0 -4219 -23 -145 -152 -272 -297
-294 -30 -4 -729 -7 -1554 -6 -1357 2 -1504 3 -1543 18 -120 46 -216 156 -238
273 -7 38 -9 4195 -2 4224 11 43 34 99 54 131 46 74 148 142 235 157 24 4 724
7 1554 6 1365 -1 1514 -2 1553 -17z"/>
<path d="M3450 5170 c-106 -30 -172 -118 -166 -222 4 -64 11 -82 48 -130 52
-67 165 -99 242 -69 106 42 164 155 135 266 -29 109 -154 184 -259 155z"/>
<path d="M3345 4000 c-467 -71 -836 -427 -919 -885 -3 -16 -8 -41 -11 -55 -8
-32 -8 -247 0 -280 3 -14 8 -45 11 -69 3 -25 7 -49 10 -53 3 -5 8 -21 10 -36
9 -46 71 -191 114 -263 129 -218 345 -394 585 -476 273 -94 585 -74 840 54
293 148 499 406 578 728 89 356 -22 751 -283 1015 -153 155 -312 245 -530 301
-92 23 -310 34 -405 19z m331 -453 c183 -53 325 -171 407 -338 25 -52 51 -119
58 -149 16 -71 16 -219 -1 -290 -34 -144 -126 -286 -245 -377 -189 -144 -471
-171 -682 -65 -166 84 -283 221 -338 395 -94 297 47 633 325 777 138 72 327
90 476 47z"/>
</g>
</svg>
